<?xml version="1.0" encoding="UTF-8"?>
<!DOCTYPE svg PUBLIC "-//W3C//DTD SVG 1.1//EN" "http://www.w3.org/Graphics/SVG/1.1/DTD/svg11.dtd">
<!-- Creator: CorelDRAW X7 -->
<svg xmlns="http://www.w3.org/2000/svg" xml:space="preserve" width="405.076mm" height="31.6881mm" version="1.1" style="shape-rendering:geometricPrecision; text-rendering:geometricPrecision; image-rendering:optimizeQuality; fill-rule:evenodd; clip-rule:evenodd"
viewBox="0 0 37011 2895"
 xmlns:xlink="http://www.w3.org/1999/xlink">
 <defs>
  <style type="text/css">
   <![CDATA[
    .str0 {stroke:red;stroke-width:6.96231}
    .fil0 {fill:none}
   ]]>
  </style>
 </defs>
 <g id="Layer_x0020_1">
  <metadata id="CorelCorpID_0Corel-Layer"/>
  <g id="_770738032">
   <path class="fil0 str0" d="M8458 418c0,51 41,92 91,92 50,0 91,-41 91,-92 0,-50 -41,-91 -91,-91 -50,0 -91,41 -91,91z"/>
   <path class="fil0 str0" d="M9006 418c0,51 41,92 91,92 51,0 92,-41 92,-92 0,-50 -41,-91 -92,-91 -50,0 -91,41 -91,91z"/>
   <path class="fil0 str0" d="M8914 692c0,-50 -40,-91 -91,-91 -50,0 -91,41 -91,91 0,51 41,92 91,92 51,0 91,-41 91,-92z"/>
   <path class="fil0 str0" d="M9097 875c-50,0 -91,41 -91,92 0,50 41,91 91,91 51,0 92,-41 92,-91 0,-51 -41,-92 -92,-92z"/>
   <path class="fil0 str0" d="M8640 967c0,-51 -41,-92 -91,-92 -50,0 -91,41 -91,92 0,50 41,91 91,91 50,0 91,-41 91,-91z"/>
   <path class="fil0 str0" d="M8823 1149c-50,0 -91,41 -91,92 0,50 41,91 91,91 51,0 91,-41 91,-91 0,-51 -40,-92 -91,-92z"/>
   <path class="fil0 str0" d="M9189 1515c0,-51 -41,-92 -92,-92 -50,0 -91,41 -91,92 0,50 41,91 91,91 51,0 92,-41 92,-91z"/>
   <path class="fil0 str0" d="M24673 917l-5122 0c-122,0 -227,42 -315,127l-284 270c-88,85 -193,127 -315,127l-262 0c-123,0 -228,-42 -316,-127l-283 -270c-89,-85 -194,-127 -316,-127l-5122 0 0 914c0,251 -205,457 -457,457l-2716 0c-467,0 -868,-169 -1194,-502 -530,-540 -1891,-925 -3487,-925 -1923,0 -3506,1107 -3702,1824 -73,267 -779,369 -779,-278 0,-1025 1837,-2404 4102,-2404l8233 0 12335 0 8233 0c2265,0 4102,1379 4102,2404 0,647 -706,545 -779,278 -196,-717 -1779,-1824 -3702,-1824 -1595,0 -2956,385 -3486,925 -327,333 -728,502 -1194,502l-2717 0c-252,0 -457,-206 -457,-457l0 -914z"/>
   <path class="fil0 str0" d="M9554 418c0,51 41,92 91,92 51,0 92,-41 92,-92 0,-50 -41,-91 -92,-91 -50,0 -91,41 -91,91z"/>
   <path class="fil0 str0" d="M10102 418c0,51 41,92 92,92 50,0 91,-41 91,-92 0,-50 -41,-91 -91,-91 -51,0 -92,41 -92,91z"/>
   <path class="fil0 str0" d="M10650 418c0,51 41,92 92,92 50,0 91,-41 91,-92 0,-50 -41,-91 -91,-91 -51,0 -92,41 -92,91z"/>
   <path class="fil0 str0" d="M11199 418c0,51 41,92 91,92 51,0 91,-41 91,-92 0,-50 -40,-91 -91,-91 -50,0 -91,41 -91,91z"/>
   <path class="fil0 str0" d="M11747 418c0,51 41,92 91,92 51,0 92,-41 92,-92 0,-50 -41,-91 -92,-91 -50,0 -91,41 -91,91z"/>
   <path class="fil0 str0" d="M11564 601c-50,0 -91,41 -91,91 0,51 41,92 91,92 51,0 92,-41 92,-92 0,-50 -41,-91 -92,-91z"/>
   <path class="fil0 str0" d="M11107 692c0,-50 -41,-91 -91,-91 -51,0 -91,41 -91,91 0,51 40,92 91,92 50,0 91,-41 91,-92z"/>
   <path class="fil0 str0" d="M10559 692c0,-50 -41,-91 -91,-91 -51,0 -92,41 -92,91 0,51 41,92 92,92 50,0 91,-41 91,-92z"/>
   <path class="fil0 str0" d="M10011 692c0,-50 -41,-91 -91,-91 -51,0 -92,41 -92,91 0,51 41,92 92,92 50,0 91,-41 91,-92z"/>
   <path class="fil0 str0" d="M9463 692c0,-50 -41,-91 -92,-91 -50,0 -91,41 -91,91 0,51 41,92 91,92 51,0 92,-41 92,-92z"/>
   <path class="fil0 str0" d="M9280 1241c0,50 41,91 91,91 51,0 92,-41 92,-91 0,-51 -41,-92 -92,-92 -50,0 -91,41 -91,92z"/>
   <path class="fil0 str0" d="M9828 1241c0,50 41,91 92,91 50,0 91,-41 91,-91 0,-51 -41,-92 -91,-92 -51,0 -92,41 -92,92z"/>
   <path class="fil0 str0" d="M10376 1241c0,50 41,91 92,91 50,0 91,-41 91,-91 0,-51 -41,-92 -91,-92 -51,0 -92,41 -92,92z"/>
   <path class="fil0 str0" d="M10925 1241c0,50 40,91 91,91 50,0 91,-41 91,-91 0,-51 -41,-92 -91,-92 -51,0 -91,41 -91,92z"/>
   <path class="fil0 str0" d="M11473 1241c0,50 41,91 91,91 51,0 92,-41 92,-91 0,-51 -41,-92 -92,-92 -50,0 -91,41 -91,92z"/>
   <path class="fil0 str0" d="M11290 1423c-50,0 -91,41 -91,92 0,50 41,91 91,91 51,0 91,-41 91,-91 0,-51 -40,-92 -91,-92z"/>
   <path class="fil0 str0" d="M10833 1515c0,-51 -41,-92 -91,-92 -51,0 -92,41 -92,92 0,50 41,91 92,91 50,0 91,-41 91,-91z"/>
   <path class="fil0 str0" d="M10285 1515c0,-51 -41,-92 -91,-92 -51,0 -92,41 -92,92 0,50 41,91 92,91 50,0 91,-41 91,-91z"/>
   <path class="fil0 str0" d="M9737 1515c0,-51 -41,-92 -92,-92 -50,0 -91,41 -91,92 0,50 41,91 91,91 51,0 92,-41 92,-91z"/>
   <path class="fil0 str0" d="M9371 1698c-50,0 -91,40 -91,91 0,50 41,91 91,91 51,0 92,-41 92,-91 0,-51 -41,-91 -92,-91z"/>
   <path class="fil0 str0" d="M9828 1789c0,50 41,91 92,91 50,0 91,-41 91,-91 0,-51 -41,-91 -91,-91 -51,0 -92,40 -92,91z"/>
   <path class="fil0 str0" d="M10376 1789c0,50 41,91 92,91 50,0 91,-41 91,-91 0,-51 -41,-91 -91,-91 -51,0 -92,40 -92,91z"/>
   <path class="fil0 str0" d="M10925 1789c0,50 40,91 91,91 50,0 91,-41 91,-91 0,-51 -41,-91 -91,-91 -51,0 -91,40 -91,91z"/>
   <path class="fil0 str0" d="M11473 1789c0,50 41,91 91,91 51,0 92,-41 92,-91 0,-51 -41,-91 -92,-91 -50,0 -91,40 -91,91z"/>
   <path class="fil0 str0" d="M11838 1606c51,0 92,-41 92,-91 0,-51 -41,-92 -92,-92 -50,0 -91,41 -91,92 0,50 41,91 91,91z"/>
   <path class="fil0 str0" d="M11838 1058c51,0 92,-41 92,-91 0,-51 -41,-92 -92,-92 -50,0 -91,41 -91,92 0,50 41,91 91,91z"/>
   <path class="fil0 str0" d="M11381 967c0,-51 -40,-92 -91,-92 -50,0 -91,41 -91,92 0,50 41,91 91,91 51,0 91,-41 91,-91z"/>
   <path class="fil0 str0" d="M10833 967c0,-51 -41,-92 -91,-92 -51,0 -92,41 -92,92 0,50 41,91 92,91 50,0 91,-41 91,-91z"/>
   <path class="fil0 str0" d="M10285 967c0,-51 -41,-92 -91,-92 -51,0 -92,41 -92,92 0,50 41,91 92,91 50,0 91,-41 91,-91z"/>
   <path class="fil0 str0" d="M9737 967c0,-51 -41,-92 -92,-92 -50,0 -91,41 -91,92 0,50 41,91 91,91 51,0 92,-41 92,-91z"/>
   <path class="fil0 str0" d="M12658 597c0,51 41,92 91,92 51,0 92,-41 92,-92 0,-50 -41,-91 -92,-91 -50,0 -91,41 -91,91z"/>
   <path class="fil0 str0" d="M13206 597c0,51 41,92 92,92 50,0 91,-41 91,-92 0,-50 -41,-91 -91,-91 -51,0 -92,41 -92,91z"/>
   <path class="fil0 str0" d="M13755 597c0,51 40,92 91,92 50,0 91,-41 91,-92 0,-50 -41,-91 -91,-91 -51,0 -91,41 -91,91z"/>
   <path class="fil0 str0" d="M14303 597c0,51 41,92 91,92 51,0 91,-41 91,-92 0,-50 -40,-91 -91,-91 -50,0 -91,41 -91,91z"/>
   <path class="fil0 str0" d="M14851 597c0,51 41,92 91,92 51,0 92,-41 92,-92 0,-50 -41,-91 -92,-91 -50,0 -91,41 -91,91z"/>
   <path class="fil0 str0" d="M15399 597c0,51 41,92 92,92 50,0 91,-41 91,-92 0,-50 -41,-91 -91,-91 -51,0 -92,41 -92,91z"/>
   <path class="fil0 str0" d="M15947 597c0,51 41,92 92,92 50,0 91,-41 91,-92 0,-50 -41,-91 -91,-91 -51,0 -92,41 -92,91z"/>
   <path class="fil0 str0" d="M16496 597c0,51 40,92 91,92 50,0 91,-41 91,-92 0,-50 -41,-91 -91,-91 -51,0 -91,41 -91,91z"/>
   <path class="fil0 str0" d="M17044 597c0,51 41,92 91,92 51,0 92,-41 92,-92 0,-50 -41,-91 -92,-91 -50,0 -91,41 -91,91z"/>
   <path class="fil0 str0" d="M17592 597c0,51 41,92 91,92 51,0 92,-41 92,-92 0,-50 -41,-91 -92,-91 -50,0 -91,41 -91,91z"/>
   <path class="fil0 str0" d="M18140 597c0,51 41,92 92,92 50,0 91,-41 91,-92 0,-50 -41,-91 -91,-91 -51,0 -92,41 -92,91z"/>
   <path class="fil0 str0" d="M18049 323c0,-50 -41,-91 -92,-91 -50,0 -91,41 -91,91 0,51 41,92 91,92 51,0 92,-41 92,-92z"/>
   <path class="fil0 str0" d="M17501 323c0,-50 -41,-91 -92,-91 -50,0 -91,41 -91,91 0,51 41,92 91,92 51,0 92,-41 92,-92z"/>
   <path class="fil0 str0" d="M16952 323c0,-50 -40,-91 -91,-91 -50,0 -91,41 -91,91 0,51 41,92 91,92 51,0 91,-41 91,-92z"/>
   <path class="fil0 str0" d="M16404 323c0,-50 -41,-91 -91,-91 -51,0 -92,41 -92,91 0,51 41,92 92,92 50,0 91,-41 91,-92z"/>
   <path class="fil0 str0" d="M15856 323c0,-50 -41,-91 -91,-91 -51,0 -92,41 -92,91 0,51 41,92 92,92 50,0 91,-41 91,-92z"/>
   <path class="fil0 str0" d="M15308 323c0,-50 -41,-91 -92,-91 -50,0 -91,41 -91,91 0,51 41,92 91,92 51,0 92,-41 92,-92z"/>
   <path class="fil0 str0" d="M14760 323c0,-50 -41,-91 -92,-91 -50,0 -91,41 -91,91 0,51 41,92 91,92 51,0 92,-41 92,-92z"/>
   <path class="fil0 str0" d="M14211 323c0,-50 -41,-91 -91,-91 -50,0 -91,41 -91,91 0,51 41,92 91,92 50,0 91,-41 91,-92z"/>
   <path class="fil0 str0" d="M13663 323c0,-50 -41,-91 -91,-91 -51,0 -92,41 -92,91 0,51 41,92 92,92 50,0 91,-41 91,-92z"/>
   <path class="fil0 str0" d="M13115 323c0,-50 -41,-91 -91,-91 -51,0 -92,41 -92,91 0,51 41,92 92,92 50,0 91,-41 91,-92z"/>
   <path class="fil0 str0" d="M18688 597c0,51 41,92 92,92 50,0 91,-41 91,-92 0,-50 -41,-91 -91,-91 -51,0 -92,41 -92,91z"/>
   <path class="fil0 str0" d="M19237 597c0,51 41,92 91,92 50,0 91,-41 91,-92 0,-50 -41,-91 -91,-91 -50,0 -91,41 -91,91z"/>
   <path class="fil0 str0" d="M19785 597c0,51 41,92 91,92 51,0 92,-41 92,-92 0,-50 -41,-91 -92,-91 -50,0 -91,41 -91,91z"/>
   <path class="fil0 str0" d="M20333 597c0,51 41,92 91,92 51,0 92,-41 92,-92 0,-50 -41,-91 -92,-91 -50,0 -91,41 -91,91z"/>
   <path class="fil0 str0" d="M20881 597c0,51 41,92 92,92 50,0 91,-41 91,-92 0,-50 -41,-91 -91,-91 -51,0 -92,41 -92,91z"/>
   <path class="fil0 str0" d="M21429 597c0,51 41,92 92,92 50,0 91,-41 91,-92 0,-50 -41,-91 -91,-91 -51,0 -92,41 -92,91z"/>
   <path class="fil0 str0" d="M21978 597c0,51 41,92 91,92 51,0 91,-41 91,-92 0,-50 -40,-91 -91,-91 -50,0 -91,41 -91,91z"/>
   <path class="fil0 str0" d="M22526 597c0,51 41,92 91,92 51,0 92,-41 92,-92 0,-50 -41,-91 -92,-91 -50,0 -91,41 -91,91z"/>
   <path class="fil0 str0" d="M23074 597c0,51 41,92 91,92 51,0 92,-41 92,-92 0,-50 -41,-91 -92,-91 -50,0 -91,41 -91,91z"/>
   <path class="fil0 str0" d="M23622 597c0,51 41,92 92,92 50,0 91,-41 91,-92 0,-50 -41,-91 -91,-91 -51,0 -92,41 -92,91z"/>
   <path class="fil0 str0" d="M24171 597c0,51 40,92 91,92 50,0 91,-41 91,-92 0,-50 -41,-91 -91,-91 -51,0 -91,41 -91,91z"/>
   <path class="fil0 str0" d="M23988 415c50,0 91,-41 91,-92 0,-50 -41,-91 -91,-91 -51,0 -92,41 -92,91 0,51 41,92 92,92z"/>
   <path class="fil0 str0" d="M23531 323c0,-50 -41,-91 -91,-91 -51,0 -92,41 -92,91 0,51 41,92 92,92 50,0 91,-41 91,-92z"/>
   <path class="fil0 str0" d="M22983 323c0,-50 -41,-91 -92,-91 -50,0 -91,41 -91,91 0,51 41,92 91,92 51,0 92,-41 92,-92z"/>
   <path class="fil0 str0" d="M22435 323c0,-50 -41,-91 -92,-91 -50,0 -91,41 -91,91 0,51 41,92 91,92 51,0 92,-41 92,-92z"/>
   <path class="fil0 str0" d="M21886 323c0,-50 -41,-91 -91,-91 -50,0 -91,41 -91,91 0,51 41,92 91,92 50,0 91,-41 91,-92z"/>
   <path class="fil0 str0" d="M21338 323c0,-50 -41,-91 -91,-91 -51,0 -92,41 -92,91 0,51 41,92 92,92 50,0 91,-41 91,-92z"/>
   <path class="fil0 str0" d="M20790 323c0,-50 -41,-91 -91,-91 -51,0 -92,41 -92,91 0,51 41,92 92,92 50,0 91,-41 91,-92z"/>
   <path class="fil0 str0" d="M20242 323c0,-50 -41,-91 -92,-91 -50,0 -91,41 -91,91 0,51 41,92 91,92 51,0 92,-41 92,-92z"/>
   <path class="fil0 str0" d="M19693 323c0,-50 -40,-91 -91,-91 -50,0 -91,41 -91,91 0,51 41,92 91,92 51,0 91,-41 91,-92z"/>
   <path class="fil0 str0" d="M19145 323c0,-50 -41,-91 -91,-91 -51,0 -91,41 -91,91 0,51 40,92 91,92 50,0 91,-41 91,-92z"/>
   <path class="fil0 str0" d="M18597 323c0,-50 -41,-91 -91,-91 -51,0 -92,41 -92,91 0,51 41,92 92,92 50,0 91,-41 91,-92z"/>
   <path class="fil0 str0" d="M25082 418c0,51 41,92 91,92 51,0 91,-41 91,-92 0,-50 -40,-91 -91,-91 -50,0 -91,41 -91,91z"/>
   <path class="fil0 str0" d="M25630 418c0,51 41,92 91,92 51,0 92,-41 92,-92 0,-50 -41,-91 -92,-91 -50,0 -91,41 -91,91z"/>
   <path class="fil0 str0" d="M26178 418c0,51 41,92 92,92 50,0 91,-41 91,-92 0,-50 -41,-91 -91,-91 -51,0 -92,41 -92,91z"/>
   <path class="fil0 str0" d="M26726 418c0,51 41,92 92,92 50,0 91,-41 91,-92 0,-50 -41,-91 -91,-91 -51,0 -92,41 -92,91z"/>
   <path class="fil0 str0" d="M27275 418c0,51 40,92 91,92 50,0 91,-41 91,-92 0,-50 -41,-91 -91,-91 -51,0 -91,41 -91,91z"/>
   <path class="fil0 str0" d="M27183 692c0,-50 -41,-91 -91,-91 -51,0 -92,41 -92,91 0,51 41,92 92,92 50,0 91,-41 91,-92z"/>
   <path class="fil0 str0" d="M26635 692c0,-50 -41,-91 -91,-91 -51,0 -92,41 -92,91 0,51 41,92 92,92 50,0 91,-41 91,-92z"/>
   <path class="fil0 str0" d="M26087 692c0,-50 -41,-91 -92,-91 -50,0 -91,41 -91,91 0,51 41,92 91,92 51,0 92,-41 92,-92z"/>
   <path class="fil0 str0" d="M25539 692c0,-50 -41,-91 -92,-91 -50,0 -91,41 -91,91 0,51 41,92 91,92 51,0 92,-41 92,-92z"/>
   <path class="fil0 str0" d="M25721 875c-50,0 -91,41 -91,92 0,50 41,91 91,91 51,0 92,-41 92,-91 0,-51 -41,-92 -92,-92z"/>
   <path class="fil0 str0" d="M26178 967c0,50 41,91 92,91 50,0 91,-41 91,-91 0,-51 -41,-92 -91,-92 -51,0 -92,41 -92,92z"/>
   <path class="fil0 str0" d="M26726 967c0,50 41,91 92,91 50,0 91,-41 91,-91 0,-51 -41,-92 -91,-92 -51,0 -92,41 -92,92z"/>
   <path class="fil0 str0" d="M27275 967c0,50 40,91 91,91 50,0 91,-41 91,-91 0,-51 -41,-92 -91,-92 -51,0 -91,41 -91,92z"/>
   <path class="fil0 str0" d="M27183 1241c0,-51 -41,-92 -91,-92 -51,0 -92,41 -92,92 0,50 41,91 92,91 50,0 91,-41 91,-91z"/>
   <path class="fil0 str0" d="M26635 1241c0,-51 -41,-92 -91,-92 -51,0 -92,41 -92,92 0,50 41,91 92,91 50,0 91,-41 91,-91z"/>
   <path class="fil0 str0" d="M26087 1241c0,-51 -41,-92 -92,-92 -50,0 -91,41 -91,92 0,50 41,91 91,91 51,0 92,-41 92,-91z"/>
   <path class="fil0 str0" d="M25539 1241c0,-51 -41,-92 -92,-92 -50,0 -91,41 -91,92 0,50 41,91 91,91 51,0 92,-41 92,-91z"/>
   <path class="fil0 str0" d="M25721 1423c-50,0 -91,41 -91,92 0,50 41,91 91,91 51,0 92,-41 92,-91 0,-51 -41,-92 -92,-92z"/>
   <path class="fil0 str0" d="M26178 1515c0,50 41,91 92,91 50,0 91,-41 91,-91 0,-51 -41,-92 -91,-92 -51,0 -92,41 -92,92z"/>
   <path class="fil0 str0" d="M26726 1515c0,50 41,91 92,91 50,0 91,-41 91,-91 0,-51 -41,-92 -91,-92 -51,0 -92,41 -92,92z"/>
   <path class="fil0 str0" d="M27275 1515c0,50 40,91 91,91 50,0 91,-41 91,-91 0,-51 -41,-92 -91,-92 -51,0 -91,41 -91,92z"/>
   <path class="fil0 str0" d="M27183 1789c0,-51 -41,-91 -91,-91 -51,0 -92,40 -92,91 0,50 41,91 92,91 50,0 91,-41 91,-91z"/>
   <path class="fil0 str0" d="M26635 1789c0,-51 -41,-91 -91,-91 -51,0 -92,40 -92,91 0,50 41,91 92,91 50,0 91,-41 91,-91z"/>
   <path class="fil0 str0" d="M26087 1789c0,-51 -41,-91 -92,-91 -50,0 -91,40 -91,91 0,50 41,91 91,91 51,0 92,-41 92,-91z"/>
   <path class="fil0 str0" d="M25539 1789c0,-51 -41,-91 -92,-91 -50,0 -91,40 -91,91 0,50 41,91 91,91 51,0 92,-41 92,-91z"/>
   <path class="fil0 str0" d="M25173 1606c51,0 91,-41 91,-91 0,-51 -40,-92 -91,-92 -50,0 -91,41 -91,92 0,50 41,91 91,91z"/>
   <path class="fil0 str0" d="M25173 1058c51,0 91,-41 91,-91 0,-51 -40,-92 -91,-92 -50,0 -91,41 -91,92 0,50 41,91 91,91z"/>
   <path class="fil0 str0" d="M27823 418c0,51 41,92 91,92 51,0 92,-41 92,-92 0,-50 -41,-91 -92,-91 -50,0 -91,41 -91,91z"/>
   <path class="fil0 str0" d="M28371 418c0,51 41,92 91,92 51,0 92,-41 92,-92 0,-50 -41,-91 -92,-91 -50,0 -91,41 -91,91z"/>
   <path class="fil0 str0" d="M28188 601c-50,0 -91,41 -91,91 0,51 41,92 91,92 51,0 92,-41 92,-92 0,-50 -41,-91 -92,-91z"/>
   <path class="fil0 str0" d="M27731 692c0,-50 -40,-91 -91,-91 -50,0 -91,41 -91,91 0,51 41,92 91,92 51,0 91,-41 91,-92z"/>
   <path class="fil0 str0" d="M27823 967c0,50 41,91 91,91 51,0 92,-41 92,-91 0,-51 -41,-92 -92,-92 -50,0 -91,41 -91,92z"/>
   <path class="fil0 str0" d="M28371 967c0,50 41,91 91,91 51,0 92,-41 92,-91 0,-51 -41,-92 -92,-92 -50,0 -91,41 -91,92z"/>
   <path class="fil0 str0" d="M28188 1149c-50,0 -91,41 -91,92 0,50 41,91 91,91 51,0 92,-41 92,-91 0,-51 -41,-92 -92,-92z"/>
   <path class="fil0 str0" d="M27731 1241c0,-51 -40,-92 -91,-92 -50,0 -91,41 -91,92 0,50 41,91 91,91 51,0 91,-41 91,-91z"/>
   <path class="fil0 str0" d="M27823 1515c0,50 41,91 91,91 51,0 92,-41 92,-91 0,-51 -41,-92 -92,-92 -50,0 -91,41 -91,92z"/>
   <path class="fil0 str0" d="M27640 1698c-50,0 -91,40 -91,91 0,50 41,91 91,91 51,0 91,-41 91,-91 0,-51 -40,-91 -91,-91z"/>
  </g>
 </g>
</svg>
